<svg id="Layer_1" data-name="Layer 1" xmlns="http://www.w3.org/2000/svg" viewBox="0 0 566.93 566.93"><defs><style>.cls-1{fill:#1c4ca0;}.cls-2{fill:#717bbb;}</style></defs><path class="cls-1" d="M145.41,406.17c16.1-2.69,34.68-32.42,46.86-53.47l4.75-8.26c11.77-20.44,27.46-44.18,46.66-58.22a67.69,67.69,0,0,0-19.82-2.69c-34.48.21-72.67,24-90.84,63-8.46,18.17-8.26,34.07,4.13,34.07,20.64,0,50.17-41.91,50.17-72.26,0-2.07,2.47-1.86,2.47,0,0,32.41-29.93,75.35-54.71,75.35-18.58,0-23.53-19.4-13.42-41.29,13.63-29.31,53.89-61.31,103.23-61.31A84,84,0,0,1,247,283.74c9.91-6.61,21.27-12,33.65-12,13.42,0,24.37,6.81,28.7,13.41.83,1.24-1,2.9-1.86,1.45-5-8.67-16.51-12.39-26.84-12.39a43.69,43.69,0,0,0-29.31,10.94c19.82,7.23,27.25,20.44,22.09,32.42s-24.78,21.47-42.74,22.5v.41c21.06,3.93,35.72,19.62,31.38,38-4.33,18-25.8,34.07-71.22,34.07-15.49,0-36.13-2.27-45.42-3.1-18.58,5.16-56.78,5.16-56.78-4.13S113.2,400.8,145.41,406.17Zm7.22,1.24a324.32,324.32,0,0,0,38.2,2.06c67.71,0,77.62-67.3,24.15-68.13l-6.6,12C191.45,384.08,179.47,397.91,152.63,407.41Zm95.8-119.54c-14.25,15.28-23.74,34.68-31.59,50.37C261.23,337.62,276.51,300.67,248.43,287.87Z"/><path class="cls-1" d="M269.49,390.68l25.39-44.39c8.26,0,12.39,3.93,5.57,16.11l-21.05,37c-2.89,5.17-1.66,7.64,1.24,7.64,8.25,0,22.91-17.75,32.41-30.55,1.24-1.65,3.3-.62,2.06,1C299.84,399.56,285.8,412,276.51,412,268.45,412,262.47,402.86,269.49,390.68Zm32.41-64.82c.62-4.34,5.16-7.64,9.7-7.64s7.85,3.51,7.23,7.64c-.62,4.33-5.16,7.63-9.7,7.63S301.28,330,301.9,325.86Z"/><path class="cls-1" d="M332.66,366.11c12.8-15.27,22.92-21.05,30.56-21.05,7.22,0,15.07,8.25,4.74,25L349.8,399.35c-3.51,5.78-1.86,7.64,1,7.64,8.26,0,23.74-16.72,32.21-30.35,1-1.65,3.09-.62,2.06,1C371.27,397.91,357,412,345.67,412c-7.23,0-15.07-6.82-4.13-24.57l17.13-27.67c3.93-6.4,2.48-9.7-.62-9.7-6.19,0-15.07,7.64-23.74,18.17a127.92,127.92,0,0,0-16.72,26.43L310,410.5h-1c-6.19,0-12.39-3.3-5.78-15.89L353.93,299c6.19,0,12.8,2.47,6.19,14.86l-27.67,52.23C332.25,366.53,332.66,366.11,332.66,366.11Z"/><path class="cls-1" d="M451.58,346.29l-29.52,53.27c-2.89,5.16-1.24,7.43,1.85,7.43,7.23,0,22.92-16.72,31.39-30.35,1-1.65,3.09-.62,2.06,1C441.88,399.77,429.28,412,419,412c-6.81,0-11.56-6.2-9.08-15.49C402.24,406,394.18,412,386.34,412c-14.45,0-17.55-16.31-7.64-33.45,10.53-18.17,28.9-33.44,43.36-33.44,6.81,0,9.29,4.95,8.05,13-.21,1.24-.21,1.24.41,0C436.92,346.71,441.46,346.29,451.58,346.29Zm-28.49,2.28c-7.23,0-19,13.21-28.49,29.93S384.27,407,391.5,407s19-13.21,28.49-29.93S430.31,348.57,423.09,348.57Z"/><path class="cls-1" d="M328.16,84.63A59,59,0,0,1,320,94.73c-.6.6-1.21,1.18-1.82,1.75h0a51.73,51.73,0,0,1-20.44,11.93,60.24,60.24,0,0,0,9.21-7.55C321.86,86,326.39,66.34,317.08,57l-.21-.21a.46.46,0,0,0-.07-.07,7.76,7.76,0,0,0-.92-.8c-2.88-2.17-7-2.53-11.58-1.31a28.29,28.29,0,0,0-3.13,1.07A55,55,0,0,0,282.52,68.2a58.34,58.34,0,0,0-8.12,10.09A52.14,52.14,0,0,1,281.05,67h0a59.72,59.72,0,0,1,5.27-6,58.73,58.73,0,0,1,9.21-7.55c13-8.59,27.14-10,34.62-2.56C337.46,58.21,336.24,71.89,328.16,84.63Z"/><path class="cls-1" d="M239.74,220.46c-3.5,3.5-7.71,5-9.75,3.67a17.61,17.61,0,0,0,3.35-2.64c3.72-3.73,5.23-8.25,3.37-10.12a3.47,3.47,0,0,0-.37-.3c2.77-1.67,5.45-2,6.77-.72C245,212.21,243.46,216.74,239.74,220.46Z"/><path class="cls-1" d="M305,193.25c-21.92,21.92-50,30.18-66.16,20.47h.06l-.56-.31a15.42,15.42,0,0,1-2.74-2l-.42-.39c-3.31-3.32-4.87-7.93-4.84-13.18.07-9.5,5.36-21.06,15-30.66,1.23-1.23,2.5-2.39,3.79-3.48-13.59,14.66-17.45,33.17-8.49,42.13a16.61,16.61,0,0,0,9.22,4.54h0a24.71,24.71,0,0,0,3.38.29,36.38,36.38,0,0,0,16.24-4.1l.08,0c1.37-.67,2.75-1.43,4.11-2.27q2.79-1.63,5.53-3.54a97.67,97.67,0,0,0,13.5-11.31c24.21-24.21,31.76-55.9,16.86-70.8a23.11,23.11,0,0,0-4.64-3.62c6.7.63,12.56,3.08,16.95,7.47,4.57,4.57,7,10.72,7.54,17.75C330.59,156.08,321.82,176.46,305,193.25Z"/><path class="cls-1" d="M255.57,94.73s0,0,0,0l-.17,0Z"/><path class="cls-1" d="M289.79,108.55a32.51,32.51,0,0,1-1.6,9.37A53.44,53.44,0,0,1,274.84,139c-.83.83-1.68,1.64-2.54,2.41a58.56,58.56,0,0,1-7.79,5.86,46.77,46.77,0,0,1-11.4,5.26,54.16,54.16,0,0,0,7.44-4.63h0a60.49,60.49,0,0,0,6.8-5.87l.07-.07h0c7.77-7.79,12.7-16.87,14.31-25.08a27.62,27.62,0,0,0,.49-7.7,19.85,19.85,0,0,0-.68-3.85,15.53,15.53,0,0,0-10.43-11A25,25,0,0,0,258,94.13h0l-.51-.34a35.54,35.54,0,0,1,14.64-3.42,22,22,0,0,1,4.95.57A16.14,16.14,0,0,1,285,95.21a15.61,15.61,0,0,1,3.48,5.35,17.3,17.3,0,0,1,.59,1.76,20.46,20.46,0,0,1,.71,4.21C289.79,107.2,289.8,107.87,289.79,108.55Z"/><path class="cls-1" d="M258,94.13c-.82.18-1.65.4-2.48.64l-.17,0,.19-.09h0c.65-.33,1.3-.65,1.95-.94Z"/><path class="cls-1" d="M258,94.13c-.82.18-1.65.4-2.48.64l-.17,0,.19-.09h0c.65-.33,1.3-.65,1.95-.94Z"/><path class="cls-1" d="M250,67.69c6.05-15.85,5.22-30.93-3.75-39.9a23.86,23.86,0,0,0-4.84-3.73c5.67-.27,10.69,1.28,14.22,4.8C263.88,37.16,261.18,53.66,250,67.69Z"/><path class="cls-1" d="M270.08,108.55c0,.58,0,1.18-.09,1.78a22.37,22.37,0,0,1-1.4,5.61,29.15,29.15,0,0,1-1.88,4h0a37.29,37.29,0,0,1-6.18,8.06c-6.51,6.52-14.39,10-20.44,9.51a11.8,11.8,0,0,1-2.1-.33,10.22,10.22,0,0,1-1.86-.65,18.89,18.89,0,0,0,2.61-.31,23.8,23.8,0,0,0,3.45-1A34.86,34.86,0,0,0,254.81,127a38.11,38.11,0,0,0,5-6.19,30.87,30.87,0,0,0,3.29-6.58,22.29,22.29,0,0,0,.95-3.62h0c.75-4.28,0-8.08-2.53-10.58A8.8,8.8,0,0,0,259,98.23a11.41,11.41,0,0,1,7,1.72,8.8,8.8,0,0,1,1.3,1.07A10.39,10.39,0,0,1,270.08,108.55Z"/><path class="cls-1" d="M246.92,68.08A25.85,25.85,0,0,0,240,54.83c-6.75-6.75-17-8.89-28.36-6.95,12.09-6.87,24.63-7.56,31.52-.67C248,52.07,249.1,59.74,246.92,68.08Z"/><path class="cls-1" d="M261.86,87.07A20.24,20.24,0,0,0,251.8,85c2.25-3.13,2.93-6.34,1.43-7.83-.95-1-2.59-1-4.47-.37a11,11,0,0,0-1.9.87h0a17.15,17.15,0,0,0-3.74,2.87c-2.5,2.49-4,5.36-4.16,7.53a51.37,51.37,0,0,0-7.1,3.77,58.24,58.24,0,0,0-7.65,5.83h0l-.52.33c.4-4.58,2.68-9.85,6.57-14.71a41.49,41.49,0,0,1,2.91-3.24,34.4,34.4,0,0,1,13.32-8.5c.51-.17,1-.32,1.52-.44l.74-.18c.6-.12,1.19-.23,1.77-.3,3.88-.47,7.31.37,9.62,2.68C263.24,76.43,263.68,81.54,261.86,87.07Z"/><path class="cls-2" d="M47.84,437.16h3.49v37H47.84ZM49.58,471h10.9q4.82,0,7.23-1.87a6.28,6.28,0,0,0,2.43-5.28v-.05A6.58,6.58,0,0,0,69,459.89a7.2,7.2,0,0,0-3.41-2.44,15.31,15.31,0,0,0-5.38-.84H49.58v-3h9.69a10.74,10.74,0,0,0,6.64-1.82,6,6,0,0,0,2.38-5.1v-.05a5.64,5.64,0,0,0-2.11-4.68,9.28,9.28,0,0,0-5.91-1.68H49.58v-3.1H61a13.21,13.21,0,0,1,5.68,1.14,9,9,0,0,1,3.77,3.19,8.61,8.61,0,0,1,1.34,4.79v.06a8.37,8.37,0,0,1-.88,3.81,8.54,8.54,0,0,1-2.46,3,8.27,8.27,0,0,1-3.65,1.56v.08a11.32,11.32,0,0,1,4.62,1.52A8.62,8.62,0,0,1,73.7,464v0a9.67,9.67,0,0,1-1.48,5.42,9.33,9.33,0,0,1-4.3,3.48,17.49,17.49,0,0,1-7,1.22H49.58Z"/><path class="cls-2" d="M82.49,473a11,11,0,0,1-4.19-4.77,16.81,16.81,0,0,1-1.48-7.29v0a17,17,0,0,1,1.48-7.31,11.71,11.71,0,0,1,16.53-4.9,10.9,10.9,0,0,1,4,4.65,16.13,16.13,0,0,1,1.42,7v1.34H78.52v-2.7H98.63l-1.71,2.44V460.1a12.78,12.78,0,0,0-1.07-5.52,7.78,7.78,0,0,0-2.92-3.4,8.05,8.05,0,0,0-11.61,3.47,12.58,12.58,0,0,0-1.09,5.45v1.28a12.83,12.83,0,0,0,1.09,5.53,8,8,0,0,0,3.07,3.49A8.72,8.72,0,0,0,89,471.6a9.57,9.57,0,0,0,3.49-.6,6.88,6.88,0,0,0,2.56-1.7,6.45,6.45,0,0,0,1.46-2.57l.08-.23h3.33l0,.26a9.39,9.39,0,0,1-1.29,3.14,9.77,9.77,0,0,1-2.38,2.51,10.74,10.74,0,0,1-3.28,1.64,13.14,13.14,0,0,1-4,.58A12,12,0,0,1,82.49,473Z"/><path class="cls-2" d="M109.14,473a11,11,0,0,1-4.19-4.77,16.81,16.81,0,0,1-1.47-7.29v0a17,17,0,0,1,1.47-7.31A11,11,0,0,1,115.32,447a11.2,11.2,0,0,1,6.16,1.66,10.9,10.9,0,0,1,4,4.65,16.13,16.13,0,0,1,1.42,7v1.34H105.17v-2.7h20.11l-1.71,2.44V460.1a12.78,12.78,0,0,0-1.07-5.52,7.78,7.78,0,0,0-2.92-3.4A8.05,8.05,0,0,0,108,454.65a12.58,12.58,0,0,0-1.09,5.45v1.28a12.83,12.83,0,0,0,1.09,5.53A8,8,0,0,0,111,470.4a8.72,8.72,0,0,0,4.63,1.2,9.57,9.57,0,0,0,3.49-.6,6.88,6.88,0,0,0,2.56-1.7,6.33,6.33,0,0,0,1.46-2.57l.08-.23h3.33l0,.26a9.39,9.39,0,0,1-1.29,3.14,9.9,9.9,0,0,1-2.37,2.51,10.79,10.79,0,0,1-3.29,1.64,13.09,13.09,0,0,1-4,.58A12,12,0,0,1,109.14,473Z"/><path class="cls-2" d="M142.43,437.16h3.38v15.2h.08a8.32,8.32,0,0,1,3.28-3.88A9.78,9.78,0,0,1,154.6,447a9.52,9.52,0,0,1,5.06,1.32,8.76,8.76,0,0,1,3.36,3.73,12.66,12.66,0,0,1,1.19,5.66v16.4h-3.36V458.28a8.72,8.72,0,0,0-2-6.1A6.89,6.89,0,0,0,153.5,450a7.46,7.46,0,0,0-4,1.07,7.31,7.31,0,0,0-2.71,3,9.5,9.5,0,0,0-1,4.37v15.71h-3.38Z"/><path class="cls-2" d="M173.21,473.64a7.36,7.36,0,0,1-4.23-6.88v-.05a6.57,6.57,0,0,1,2.48-5.4,12.42,12.42,0,0,1,7.08-2.26l10-.64v2.64l-9.58.64a8.94,8.94,0,0,0-4.83,1.52,4.16,4.16,0,0,0-1.71,3.5v.05a4.34,4.34,0,0,0,1.69,3.55,6.83,6.83,0,0,0,4.39,1.35,9,9,0,0,0,4.24-1,7.93,7.93,0,0,0,3-2.71,6.9,6.9,0,0,0,1.11-3.84V456.2a5.94,5.94,0,0,0-1.73-4.53,6.75,6.75,0,0,0-4.86-1.64,7.93,7.93,0,0,0-4.72,1.3,5.48,5.48,0,0,0-2.27,3.59l0,.26H170l0-.31a8.2,8.2,0,0,1,1.56-4.07,8.75,8.75,0,0,1,3.54-2.78,12.45,12.45,0,0,1,5.23-1,11.9,11.9,0,0,1,5.26,1.09,8.11,8.11,0,0,1,3.43,3.09,8.8,8.8,0,0,1,1.22,4.72v18.24h-3.38v-4.89h-.08a8.38,8.38,0,0,1-2.07,2.82,10.2,10.2,0,0,1-3.13,1.88,10.42,10.42,0,0,1-3.74.68A10.25,10.25,0,0,1,173.21,473.64Z"/><path class="cls-2" d="M195.91,447.49h3.38v5.66h.08a10.37,10.37,0,0,1,2-3.2,9.58,9.58,0,0,1,3.1-2.17,9.73,9.73,0,0,1,3.92-.78,10.33,10.33,0,0,1,5.92,1.72,11.37,11.37,0,0,1,4,4.82,17.26,17.26,0,0,1,1.42,7.28v0a17.21,17.21,0,0,1-1.42,7.27,11.4,11.4,0,0,1-3.94,4.8,10.21,10.21,0,0,1-5.89,1.72,10,10,0,0,1-3.93-.77,9.48,9.48,0,0,1-3.13-2.14,10.08,10.08,0,0,1-2.06-3.17h-.08v14.56h-3.38Zm16.4,22.78a8.65,8.65,0,0,0,2.95-3.75,14.22,14.22,0,0,0,1.05-5.68v0a14.3,14.3,0,0,0-1.05-5.73,8.51,8.51,0,0,0-2.95-3.74,8.11,8.11,0,0,0-8.9,0,9,9,0,0,0-3,3.77,13.67,13.67,0,0,0-1.1,5.68v0a13.61,13.61,0,0,0,1.1,5.64,9,9,0,0,0,3,3.78,8.08,8.08,0,0,0,8.9,0Z"/><path class="cls-2" d="M224.25,447.49h3.39v5.66h.07a10.37,10.37,0,0,1,2-3.2,9.46,9.46,0,0,1,7-2.95,10.32,10.32,0,0,1,5.91,1.72,11.23,11.23,0,0,1,4,4.82,17.25,17.25,0,0,1,1.43,7.28v0a17.21,17.21,0,0,1-1.43,7.27,11.33,11.33,0,0,1-3.94,4.8,10.2,10.2,0,0,1-5.88,1.72,10,10,0,0,1-3.94-.77,9.43,9.43,0,0,1-3.12-2.14,10.11,10.11,0,0,1-2.07-3.17h-.07v14.56h-3.39Zm16.41,22.78a8.71,8.71,0,0,0,2.94-3.75,14.22,14.22,0,0,0,1.05-5.68v0a14.3,14.3,0,0,0-1.05-5.73,8.56,8.56,0,0,0-2.94-3.74,8.13,8.13,0,0,0-8.91,0,9,9,0,0,0-3,3.77,13.67,13.67,0,0,0-1.1,5.68v0a13.61,13.61,0,0,0,1.1,5.64,9.07,9.07,0,0,0,3,3.78,8.1,8.1,0,0,0,8.91,0Z"/><path class="cls-2" d="M252.62,483.07a8.4,8.4,0,0,1-.87-.09v-2.82a4.35,4.35,0,0,0,.57.08,6.4,6.4,0,0,0,.64,0,6.19,6.19,0,0,0,3.56-.9A6.63,6.63,0,0,0,258.7,476l.64-1.72-10-26.83h3.64l8.41,24.19-.88-.9h1.23l-.87.9,8.41-24.19h3.59l-10.69,28.78a16.56,16.56,0,0,1-2,3.87,6.86,6.86,0,0,1-2.66,2.24,9.06,9.06,0,0,1-3.85.73C253.3,483.11,253,483.1,252.62,483.07Z"/><path class="cls-2" d="M272.53,469.32h3.57l-3.28,12h-2.46Z"/><path class="cls-2" d="M287.58,447.49H291l6,22.88h.08l6.64-22.88h3.4l6.64,22.88h.1l6-22.88h3.4l-7.58,26.65h-3.56L305.44,452h-.08l-6.61,22.14h-3.59Z"/><path class="cls-2" d="M331,473a11.09,11.09,0,0,1-4.19-4.77,16.81,16.81,0,0,1-1.47-7.29v0a17,17,0,0,1,1.47-7.31,11.45,11.45,0,0,1,4.14-4.84,11.29,11.29,0,0,1,6.23-1.72,11.17,11.17,0,0,1,6.16,1.66,10.86,10.86,0,0,1,4,4.65,16.27,16.27,0,0,1,1.42,7v1.34H327v-2.7h20.12l-1.72,2.44V460.1a12.79,12.79,0,0,0-1.06-5.52,7.85,7.85,0,0,0-2.92-3.4,8,8,0,0,0-11.61,3.47,12.44,12.44,0,0,0-1.09,5.45v1.28a12.68,12.68,0,0,0,1.09,5.53,7.93,7.93,0,0,0,3.06,3.49,8.76,8.76,0,0,0,4.64,1.2A9.47,9.47,0,0,0,341,471a6.92,6.92,0,0,0,2.57-1.7,6.45,6.45,0,0,0,1.46-2.57l.07-.23h3.33l-.05.26a9.39,9.39,0,0,1-1.29,3.14,9.56,9.56,0,0,1-2.37,2.51,10.85,10.85,0,0,1-3.28,1.64,13.15,13.15,0,0,1-4,.58A12,12,0,0,1,331,473Z"/><path class="cls-2" d="M364.25,437.16h3.38v15.2h.08a8.37,8.37,0,0,1,3.28-3.88,9.81,9.81,0,0,1,5.43-1.45,9.55,9.55,0,0,1,5.07,1.32,8.81,8.81,0,0,1,3.35,3.73,12.52,12.52,0,0,1,1.19,5.66v16.4h-3.35V458.28a8.77,8.77,0,0,0-2-6.1,6.93,6.93,0,0,0-5.4-2.15,7.46,7.46,0,0,0-4,1.07,7.36,7.36,0,0,0-2.7,3,9.38,9.38,0,0,0-1,4.37v15.71h-3.38Z"/><path class="cls-2" d="M395,473.64a7.4,7.4,0,0,1-4.23-6.88v-.05a6.55,6.55,0,0,1,2.49-5.4,12.36,12.36,0,0,1,7.07-2.26l10-.64v2.64l-9.58.64a9,9,0,0,0-4.83,1.52,4.16,4.16,0,0,0-1.71,3.5v.05a4.32,4.32,0,0,0,1.7,3.55,6.78,6.78,0,0,0,4.38,1.35,9,9,0,0,0,4.24-1,7.85,7.85,0,0,0,3-2.71,6.9,6.9,0,0,0,1.11-3.84V456.2a5.91,5.91,0,0,0-1.73-4.53,6.74,6.74,0,0,0-4.85-1.64,8,8,0,0,0-4.73,1.3,5.52,5.52,0,0,0-2.27,3.59l-.05.26h-3.26l0-.31a8.2,8.2,0,0,1,1.56-4.07A8.75,8.75,0,0,1,396.9,448a12.48,12.48,0,0,1,5.23-1,11.87,11.87,0,0,1,5.26,1.09,8.14,8.14,0,0,1,3.44,3.09,8.89,8.89,0,0,1,1.22,4.72v18.24h-3.39v-4.89h-.07a8.41,8.41,0,0,1-2.08,2.82,10.2,10.2,0,0,1-3.13,1.88,10.38,10.38,0,0,1-3.74.68A10.25,10.25,0,0,1,395,473.64Z"/><path class="cls-2" d="M417.73,447.49h3.39v5.66h.07a10.37,10.37,0,0,1,2.05-3.2,9.5,9.5,0,0,1,7-2.95,10.38,10.38,0,0,1,5.92,1.72,11.37,11.37,0,0,1,4,4.82,17.41,17.41,0,0,1,1.42,7.28v0a17.36,17.36,0,0,1-1.42,7.27,11.42,11.42,0,0,1-3.95,4.8,10.15,10.15,0,0,1-5.88,1.72,10,10,0,0,1-3.94-.77,9.43,9.43,0,0,1-3.12-2.14,10.11,10.11,0,0,1-2.07-3.17h-.07v14.56h-3.39Zm16.41,22.78a8.71,8.71,0,0,0,2.94-3.75,14.22,14.22,0,0,0,1.05-5.68v0a14.3,14.3,0,0,0-1.05-5.73,8.56,8.56,0,0,0-2.94-3.74,8.13,8.13,0,0,0-8.91,0,9,9,0,0,0-3,3.77,13.67,13.67,0,0,0-1.1,5.68v0a13.61,13.61,0,0,0,1.1,5.64,9.07,9.07,0,0,0,3,3.78,8.1,8.1,0,0,0,8.91,0Z"/><path class="cls-2" d="M446.08,447.49h3.38v5.66h.08a10.19,10.19,0,0,1,2-3.2,9.48,9.48,0,0,1,3.1-2.17,9.7,9.7,0,0,1,3.92-.78,10.35,10.35,0,0,1,5.92,1.72,11.37,11.37,0,0,1,4,4.82,17.26,17.26,0,0,1,1.42,7.28v0a17.21,17.21,0,0,1-1.42,7.27,11.42,11.42,0,0,1-3.95,4.8,10.15,10.15,0,0,1-5.88,1.72,10,10,0,0,1-3.93-.77,9.38,9.38,0,0,1-3.13-2.14,9.91,9.91,0,0,1-2.06-3.17h-.08v14.56h-3.38Zm16.4,22.78a8.73,8.73,0,0,0,2.95-3.75,14.22,14.22,0,0,0,1.05-5.68v0a14.3,14.3,0,0,0-1.05-5.73,8.58,8.58,0,0,0-2.95-3.74,8.13,8.13,0,0,0-8.91,0,8.94,8.94,0,0,0-3,3.77,13.51,13.51,0,0,0-1.11,5.68v0a13.45,13.45,0,0,0,1.11,5.64,9,9,0,0,0,3,3.78,8.1,8.1,0,0,0,8.91,0Z"/><path class="cls-2" d="M474.45,483.07a8.33,8.33,0,0,1-.88-.09v-2.82a4.6,4.6,0,0,0,.57.08c.2,0,.42,0,.64,0a6.19,6.19,0,0,0,3.56-.9,6.63,6.63,0,0,0,2.18-3.33l.64-1.72-10.05-26.83h3.64l8.41,24.19-.87-.9h1.23l-.87.9,8.4-24.19h3.59L484,476.27a16.19,16.19,0,0,1-2,3.87,6.86,6.86,0,0,1-2.66,2.24,9,9,0,0,1-3.84.73C475.12,483.11,474.79,483.1,474.45,483.07Z"/><path class="cls-2" d="M494.38,473.78a2.29,2.29,0,0,1-.69-1.69,2.25,2.25,0,0,1,.69-1.68,2.34,2.34,0,0,1,1.69-.68,2.28,2.28,0,0,1,1.68.68,2.25,2.25,0,0,1,.68,1.68,2.28,2.28,0,0,1-.68,1.69,2.25,2.25,0,0,1-1.68.69A2.31,2.31,0,0,1,494.38,473.78Z"/></svg>